<mxfile modified="2020-02-11T07:09:27.245Z" host="www.draw.io" agent="Mozilla/5.0 (Windows NT 6.1; Win64; x64; rv:70.0) Gecko/20100101 Firefox/70.0" etag="zxPIv3bb9HSu0EV_yM_x" version="12.6.5" type="github">
  <diagram id="LTfPskMB6FygQ14IdYFB" name="Page-1">
    <mxGraphModel dx="3964" dy="793" grid="1" gridSize="10" guides="1" tooltips="1" connect="1" arrows="1" fold="1" page="1" pageScale="1" pageWidth="827" pageHeight="1169" math="0" shadow="0">
      <root>
        <mxCell id="0"/>
        <mxCell id="1" parent="0"/>
        <mxCell id="zPLv-gxZRl9Jhk6KXWEK-1" value="&lt;div&gt;AlmLLoM_0114&lt;/div&gt;&lt;div&gt;KKT ALARM MANAGER&lt;br&gt;&lt;/div&gt;" style="rounded=1;whiteSpace=wrap;html=1;fillColor=#d5e8d4;strokeColor=#82b366;" parent="1" vertex="1">
          <mxGeometry x="690" y="200" width="120" height="40" as="geometry"/>
        </mxCell>
        <mxCell id="zPLv-gxZRl9Jhk6KXWEK-7" style="edgeStyle=orthogonalEdgeStyle;rounded=0;orthogonalLoop=1;jettySize=auto;html=1;" parent="1" source="zPLv-gxZRl9Jhk6KXWEK-2" target="zPLv-gxZRl9Jhk6KXWEK-5" edge="1">
          <mxGeometry relative="1" as="geometry"/>
        </mxCell>
        <mxCell id="zPLv-gxZRl9Jhk6KXWEK-2" value="&lt;div&gt;MCSt01810115&lt;/div&gt;&lt;div&gt;Spiral Conveyor&lt;br&gt;&lt;/div&gt;" style="rounded=0;whiteSpace=wrap;html=1;fillColor=#d5e8d4;strokeColor=#82b366;" parent="1" vertex="1">
          <mxGeometry x="397" y="200" width="120" height="40" as="geometry"/>
        </mxCell>
        <mxCell id="zPLv-gxZRl9Jhk6KXWEK-8" style="edgeStyle=orthogonalEdgeStyle;rounded=0;orthogonalLoop=1;jettySize=auto;html=1;entryX=0;entryY=0.5;entryDx=0;entryDy=0;" parent="1" source="zPLv-gxZRl9Jhk6KXWEK-4" target="zPLv-gxZRl9Jhk6KXWEK-2" edge="1">
          <mxGeometry relative="1" as="geometry"/>
        </mxCell>
        <mxCell id="zPLv-gxZRl9Jhk6KXWEK-4" value="&lt;div&gt;MCSt01140103&lt;/div&gt;&lt;div&gt;vibtator&lt;br&gt;&lt;/div&gt;" style="rounded=0;whiteSpace=wrap;html=1;fillColor=#d5e8d4;strokeColor=#82b366;" parent="1" vertex="1">
          <mxGeometry x="250" y="200" width="120" height="40" as="geometry"/>
        </mxCell>
        <mxCell id="zPLv-gxZRl9Jhk6KXWEK-6" style="edgeStyle=orthogonalEdgeStyle;rounded=0;orthogonalLoop=1;jettySize=auto;html=1;entryX=0;entryY=0.5;entryDx=0;entryDy=0;" parent="1" source="zPLv-gxZRl9Jhk6KXWEK-5" target="zPLv-gxZRl9Jhk6KXWEK-1" edge="1">
          <mxGeometry relative="1" as="geometry"/>
        </mxCell>
        <mxCell id="zPLv-gxZRl9Jhk6KXWEK-5" value="&lt;div&gt;AcAu01810000&lt;/div&gt;" style="rounded=0;whiteSpace=wrap;html=1;fillColor=#d5e8d4;strokeColor=#82b366;" parent="1" vertex="1">
          <mxGeometry x="540" y="200" width="120" height="40" as="geometry"/>
        </mxCell>
        <mxCell id="zPLv-gxZRl9Jhk6KXWEK-10" style="edgeStyle=orthogonalEdgeStyle;rounded=0;orthogonalLoop=1;jettySize=auto;html=1;entryX=0;entryY=0.5;entryDx=0;entryDy=0;" parent="1" source="zPLv-gxZRl9Jhk6KXWEK-9" target="zPLv-gxZRl9Jhk6KXWEK-4" edge="1">
          <mxGeometry relative="1" as="geometry"/>
        </mxCell>
        <mxCell id="zPLv-gxZRl9Jhk6KXWEK-9" value="&lt;div&gt;Timer ON&lt;/div&gt;&lt;div&gt;8sec&lt;br&gt;&lt;/div&gt;" style="rounded=0;whiteSpace=wrap;html=1;fillColor=#dae8fc;strokeColor=#6c8ebf;" parent="1" vertex="1">
          <mxGeometry x="150" y="190" width="60" height="60" as="geometry"/>
        </mxCell>
        <mxCell id="zPLv-gxZRl9Jhk6KXWEK-12" style="edgeStyle=orthogonalEdgeStyle;rounded=0;orthogonalLoop=1;jettySize=auto;html=1;" parent="1" source="zPLv-gxZRl9Jhk6KXWEK-11" target="zPLv-gxZRl9Jhk6KXWEK-9" edge="1">
          <mxGeometry relative="1" as="geometry"/>
        </mxCell>
        <mxCell id="zPLv-gxZRl9Jhk6KXWEK-11" value="&lt;div&gt;AcNw01140000&lt;/div&gt;&lt;div&gt;Active new level sensor&lt;br&gt;&lt;/div&gt;" style="rounded=0;whiteSpace=wrap;html=1;fillColor=#f8cecc;strokeColor=#b85450;" parent="1" vertex="1">
          <mxGeometry x="-10" y="200" width="120" height="40" as="geometry"/>
        </mxCell>
        <mxCell id="zPLv-gxZRl9Jhk6KXWEK-14" style="edgeStyle=orthogonalEdgeStyle;rounded=0;orthogonalLoop=1;jettySize=auto;html=1;entryX=0;entryY=0.75;entryDx=0;entryDy=0;" parent="1" source="zPLv-gxZRl9Jhk6KXWEK-13" target="zPLv-gxZRl9Jhk6KXWEK-9" edge="1">
          <mxGeometry relative="1" as="geometry"/>
        </mxCell>
        <mxCell id="zPLv-gxZRl9Jhk6KXWEK-13" value="&lt;div&gt;AcNw01140000&lt;/div&gt;&lt;div&gt;Active new level sensor&lt;br&gt;&lt;/div&gt;" style="rounded=0;whiteSpace=wrap;html=1;fillColor=#d5e8d4;strokeColor=#82b366;" parent="1" vertex="1">
          <mxGeometry x="-10" y="260" width="120" height="40" as="geometry"/>
        </mxCell>
        <mxCell id="zPLv-gxZRl9Jhk6KXWEK-17" style="edgeStyle=orthogonalEdgeStyle;rounded=0;orthogonalLoop=1;jettySize=auto;html=1;entryX=0;entryY=0.5;entryDx=0;entryDy=0;" parent="1" source="zPLv-gxZRl9Jhk6KXWEK-15" target="zPLv-gxZRl9Jhk6KXWEK-11" edge="1">
          <mxGeometry relative="1" as="geometry"/>
        </mxCell>
        <mxCell id="zPLv-gxZRl9Jhk6KXWEK-15" value="&lt;div&gt;AlmLLo_0114_help&lt;/div&gt;&lt;div&gt;&lt;br&gt;&lt;/div&gt;" style="rounded=0;whiteSpace=wrap;html=1;fillColor=#d5e8d4;strokeColor=#82b366;" parent="1" vertex="1">
          <mxGeometry x="-170" y="200" width="120" height="40" as="geometry"/>
        </mxCell>
        <mxCell id="zPLv-gxZRl9Jhk6KXWEK-18" style="edgeStyle=orthogonalEdgeStyle;rounded=0;orthogonalLoop=1;jettySize=auto;html=1;entryX=0;entryY=0.5;entryDx=0;entryDy=0;" parent="1" source="zPLv-gxZRl9Jhk6KXWEK-16" target="zPLv-gxZRl9Jhk6KXWEK-13" edge="1">
          <mxGeometry relative="1" as="geometry"/>
        </mxCell>
        <mxCell id="zPLv-gxZRl9Jhk6KXWEK-16" value="&lt;div&gt;AlmLLo_0114n_help&lt;/div&gt;&lt;div&gt;&lt;br&gt;&lt;/div&gt;" style="rounded=0;whiteSpace=wrap;html=1;fillColor=#d5e8d4;strokeColor=#82b366;" parent="1" vertex="1">
          <mxGeometry x="-170" y="260" width="120" height="40" as="geometry"/>
        </mxCell>
        <mxCell id="zPLv-gxZRl9Jhk6KXWEK-20" style="edgeStyle=orthogonalEdgeStyle;rounded=0;orthogonalLoop=1;jettySize=auto;html=1;entryX=0;entryY=0.75;entryDx=0;entryDy=0;" parent="1" source="zPLv-gxZRl9Jhk6KXWEK-19" target="zPLv-gxZRl9Jhk6KXWEK-4" edge="1">
          <mxGeometry relative="1" as="geometry">
            <Array as="points">
              <mxPoint x="220" y="350"/>
              <mxPoint x="220" y="230"/>
            </Array>
          </mxGeometry>
        </mxCell>
        <mxCell id="zPLv-gxZRl9Jhk6KXWEK-19" value="AlmLLo_0114_help6" style="rounded=0;whiteSpace=wrap;html=1;fillColor=#d5e8d4;strokeColor=#82b366;" parent="1" vertex="1">
          <mxGeometry x="-170" y="330" width="120" height="40" as="geometry"/>
        </mxCell>
        <mxCell id="zPLv-gxZRl9Jhk6KXWEK-23" style="edgeStyle=orthogonalEdgeStyle;rounded=0;orthogonalLoop=1;jettySize=auto;html=1;" parent="1" source="zPLv-gxZRl9Jhk6KXWEK-21" target="zPLv-gxZRl9Jhk6KXWEK-22" edge="1">
          <mxGeometry relative="1" as="geometry"/>
        </mxCell>
        <mxCell id="zPLv-gxZRl9Jhk6KXWEK-21" value="&lt;div&gt;AlmLLoM_0114&lt;/div&gt;&lt;div&gt;KKT ALARM MANAGER&lt;br&gt;&lt;/div&gt;" style="rounded=0;whiteSpace=wrap;html=1;fillColor=#d5e8d4;strokeColor=#82b366;" parent="1" vertex="1">
          <mxGeometry x="-170" y="390" width="120" height="40" as="geometry"/>
        </mxCell>
        <mxCell id="zPLv-gxZRl9Jhk6KXWEK-24" style="edgeStyle=orthogonalEdgeStyle;rounded=0;orthogonalLoop=1;jettySize=auto;html=1;entryX=0;entryY=0.75;entryDx=0;entryDy=0;" parent="1" source="zPLv-gxZRl9Jhk6KXWEK-22" target="zPLv-gxZRl9Jhk6KXWEK-1" edge="1">
          <mxGeometry relative="1" as="geometry">
            <Array as="points">
              <mxPoint x="670" y="410"/>
              <mxPoint x="670" y="230"/>
            </Array>
          </mxGeometry>
        </mxCell>
        <mxCell id="zPLv-gxZRl9Jhk6KXWEK-22" value="&lt;div&gt;RstLLoM_0114&lt;/div&gt;&lt;div&gt;Reset KKT Alarm&lt;br&gt;&lt;/div&gt;" style="rounded=0;whiteSpace=wrap;html=1;fillColor=#f8cecc;strokeColor=#b85450;" parent="1" vertex="1">
          <mxGeometry x="-10" y="390" width="120" height="40" as="geometry"/>
        </mxCell>
        <mxCell id="zPLv-gxZRl9Jhk6KXWEK-29" style="edgeStyle=orthogonalEdgeStyle;rounded=0;orthogonalLoop=1;jettySize=auto;html=1;" parent="1" source="zPLv-gxZRl9Jhk6KXWEK-26" target="zPLv-gxZRl9Jhk6KXWEK-27" edge="1">
          <mxGeometry relative="1" as="geometry"/>
        </mxCell>
        <mxCell id="zPLv-gxZRl9Jhk6KXWEK-26" value="&lt;div&gt;GE&lt;/div&gt;&lt;div&gt;SetLLo_0114&lt;/div&gt;&lt;div&gt;&amp;lt;&lt;/div&gt;&lt;div&gt;LEPm01140210&lt;br&gt;&lt;/div&gt;" style="rounded=0;whiteSpace=wrap;html=1;fillColor=#dae8fc;strokeColor=#6c8ebf;" parent="1" vertex="1">
          <mxGeometry x="-455" y="155" width="100" height="60" as="geometry"/>
        </mxCell>
        <mxCell id="zPLv-gxZRl9Jhk6KXWEK-35" style="edgeStyle=orthogonalEdgeStyle;rounded=0;orthogonalLoop=1;jettySize=auto;html=1;exitX=1;exitY=0.5;exitDx=0;exitDy=0;entryX=0;entryY=0.5;entryDx=0;entryDy=0;" parent="1" source="zPLv-gxZRl9Jhk6KXWEK-27" target="zPLv-gxZRl9Jhk6KXWEK-15" edge="1">
          <mxGeometry relative="1" as="geometry"/>
        </mxCell>
        <mxCell id="zPLv-gxZRl9Jhk6KXWEK-27" value="AlmLLo_0114_help" style="rounded=1;whiteSpace=wrap;html=1;fillColor=#d5e8d4;strokeColor=#82b366;" parent="1" vertex="1">
          <mxGeometry x="-320" y="170" width="120" height="30" as="geometry"/>
        </mxCell>
        <mxCell id="zPLv-gxZRl9Jhk6KXWEK-31" style="edgeStyle=orthogonalEdgeStyle;rounded=0;orthogonalLoop=1;jettySize=auto;html=1;" parent="1" source="zPLv-gxZRl9Jhk6KXWEK-32" target="zPLv-gxZRl9Jhk6KXWEK-33" edge="1">
          <mxGeometry relative="1" as="geometry"/>
        </mxCell>
        <mxCell id="zPLv-gxZRl9Jhk6KXWEK-32" value="&lt;div&gt;GE&lt;/div&gt;&lt;div&gt;SetLLo_0114n&lt;/div&gt;&lt;div&gt;&amp;lt;&lt;/div&gt;&lt;div&gt;LEPm01140211&lt;br&gt;&lt;/div&gt;" style="rounded=0;whiteSpace=wrap;html=1;fillColor=#dae8fc;strokeColor=#6c8ebf;" parent="1" vertex="1">
          <mxGeometry x="-455" y="220" width="100" height="60" as="geometry"/>
        </mxCell>
        <mxCell id="zPLv-gxZRl9Jhk6KXWEK-34" style="edgeStyle=orthogonalEdgeStyle;rounded=0;orthogonalLoop=1;jettySize=auto;html=1;" parent="1" source="zPLv-gxZRl9Jhk6KXWEK-33" target="zPLv-gxZRl9Jhk6KXWEK-16" edge="1">
          <mxGeometry relative="1" as="geometry"/>
        </mxCell>
        <mxCell id="zPLv-gxZRl9Jhk6KXWEK-33" value="AlmLLo_0114n_help" style="rounded=1;whiteSpace=wrap;html=1;fillColor=#d5e8d4;strokeColor=#82b366;" parent="1" vertex="1">
          <mxGeometry x="-325" y="235" width="120" height="30" as="geometry"/>
        </mxCell>
        <mxCell id="zPLv-gxZRl9Jhk6KXWEK-40" style="edgeStyle=orthogonalEdgeStyle;rounded=0;orthogonalLoop=1;jettySize=auto;html=1;entryX=0;entryY=0.5;entryDx=0;entryDy=0;" parent="1" source="zPLv-gxZRl9Jhk6KXWEK-37" target="zPLv-gxZRl9Jhk6KXWEK-19" edge="1">
          <mxGeometry relative="1" as="geometry"/>
        </mxCell>
        <mxCell id="zPLv-gxZRl9Jhk6KXWEK-37" value="AlmLLo_0114_help6" style="rounded=1;whiteSpace=wrap;html=1;fillColor=#d5e8d4;strokeColor=#82b366;" parent="1" vertex="1">
          <mxGeometry x="-320" y="315" width="120" height="30" as="geometry"/>
        </mxCell>
        <mxCell id="zPLv-gxZRl9Jhk6KXWEK-44" style="edgeStyle=orthogonalEdgeStyle;rounded=0;orthogonalLoop=1;jettySize=auto;html=1;" parent="1" source="zPLv-gxZRl9Jhk6KXWEK-43" target="zPLv-gxZRl9Jhk6KXWEK-37" edge="1">
          <mxGeometry relative="1" as="geometry"/>
        </mxCell>
        <mxCell id="zPLv-gxZRl9Jhk6KXWEK-43" value="TimeIn10" style="rounded=0;whiteSpace=wrap;html=1;fillColor=#d5e8d4;strokeColor=#82b366;" parent="1" vertex="1">
          <mxGeometry x="-405" y="310" width="50" height="40" as="geometry"/>
        </mxCell>
        <mxCell id="zPLv-gxZRl9Jhk6KXWEK-46" style="edgeStyle=orthogonalEdgeStyle;rounded=0;orthogonalLoop=1;jettySize=auto;html=1;exitX=1;exitY=0.5;exitDx=0;exitDy=0;entryX=0;entryY=0.5;entryDx=0;entryDy=0;" parent="1" source="zPLv-gxZRl9Jhk6KXWEK-45" target="zPLv-gxZRl9Jhk6KXWEK-43" edge="1">
          <mxGeometry relative="1" as="geometry"/>
        </mxCell>
        <mxCell id="zPLv-gxZRl9Jhk6KXWEK-45" value="TimeIn9" style="rounded=0;whiteSpace=wrap;html=1;fillColor=#d5e8d4;strokeColor=#82b366;" parent="1" vertex="1">
          <mxGeometry x="-470" y="310" width="50" height="40" as="geometry"/>
        </mxCell>
        <mxCell id="zPLv-gxZRl9Jhk6KXWEK-48" style="edgeStyle=orthogonalEdgeStyle;rounded=0;orthogonalLoop=1;jettySize=auto;html=1;exitX=1;exitY=0.5;exitDx=0;exitDy=0;entryX=0;entryY=0.5;entryDx=0;entryDy=0;" parent="1" source="zPLv-gxZRl9Jhk6KXWEK-47" target="zPLv-gxZRl9Jhk6KXWEK-45" edge="1">
          <mxGeometry relative="1" as="geometry"/>
        </mxCell>
        <mxCell id="zPLv-gxZRl9Jhk6KXWEK-47" value="TimeIn8" style="rounded=0;whiteSpace=wrap;html=1;fillColor=#d5e8d4;strokeColor=#82b366;" parent="1" vertex="1">
          <mxGeometry x="-535" y="310" width="50" height="40" as="geometry"/>
        </mxCell>
        <mxCell id="zPLv-gxZRl9Jhk6KXWEK-50" style="edgeStyle=orthogonalEdgeStyle;rounded=0;orthogonalLoop=1;jettySize=auto;html=1;exitX=1;exitY=0.5;exitDx=0;exitDy=0;entryX=0;entryY=0.5;entryDx=0;entryDy=0;" parent="1" source="zPLv-gxZRl9Jhk6KXWEK-49" target="zPLv-gxZRl9Jhk6KXWEK-47" edge="1">
          <mxGeometry relative="1" as="geometry"/>
        </mxCell>
        <mxCell id="zPLv-gxZRl9Jhk6KXWEK-49" value="TimeIn7" style="rounded=0;whiteSpace=wrap;html=1;fillColor=#d5e8d4;strokeColor=#82b366;" parent="1" vertex="1">
          <mxGeometry x="-600" y="310" width="50" height="40" as="geometry"/>
        </mxCell>
        <mxCell id="zPLv-gxZRl9Jhk6KXWEK-52" style="edgeStyle=orthogonalEdgeStyle;rounded=0;orthogonalLoop=1;jettySize=auto;html=1;exitX=1;exitY=0.5;exitDx=0;exitDy=0;entryX=0;entryY=0.5;entryDx=0;entryDy=0;" parent="1" source="zPLv-gxZRl9Jhk6KXWEK-51" target="zPLv-gxZRl9Jhk6KXWEK-49" edge="1">
          <mxGeometry relative="1" as="geometry"/>
        </mxCell>
        <mxCell id="zPLv-gxZRl9Jhk6KXWEK-51" value="TimeIn6" style="rounded=0;whiteSpace=wrap;html=1;fillColor=#d5e8d4;strokeColor=#82b366;" parent="1" vertex="1">
          <mxGeometry x="-665" y="310" width="50" height="40" as="geometry"/>
        </mxCell>
        <mxCell id="zPLv-gxZRl9Jhk6KXWEK-54" style="edgeStyle=orthogonalEdgeStyle;rounded=0;orthogonalLoop=1;jettySize=auto;html=1;exitX=1;exitY=0.5;exitDx=0;exitDy=0;entryX=0;entryY=0.5;entryDx=0;entryDy=0;" parent="1" source="zPLv-gxZRl9Jhk6KXWEK-53" target="zPLv-gxZRl9Jhk6KXWEK-51" edge="1">
          <mxGeometry relative="1" as="geometry"/>
        </mxCell>
        <mxCell id="zPLv-gxZRl9Jhk6KXWEK-53" value="TimeIn5" style="rounded=0;whiteSpace=wrap;html=1;fillColor=#d5e8d4;strokeColor=#82b366;" parent="1" vertex="1">
          <mxGeometry x="-730" y="310" width="50" height="40" as="geometry"/>
        </mxCell>
        <mxCell id="zPLv-gxZRl9Jhk6KXWEK-56" style="edgeStyle=orthogonalEdgeStyle;rounded=0;orthogonalLoop=1;jettySize=auto;html=1;exitX=1;exitY=0.5;exitDx=0;exitDy=0;entryX=0;entryY=0.5;entryDx=0;entryDy=0;" parent="1" source="zPLv-gxZRl9Jhk6KXWEK-55" target="zPLv-gxZRl9Jhk6KXWEK-53" edge="1">
          <mxGeometry relative="1" as="geometry"/>
        </mxCell>
        <mxCell id="zPLv-gxZRl9Jhk6KXWEK-55" value="TimeIn4" style="rounded=0;whiteSpace=wrap;html=1;fillColor=#d5e8d4;strokeColor=#82b366;" parent="1" vertex="1">
          <mxGeometry x="-790" y="310" width="50" height="40" as="geometry"/>
        </mxCell>
        <mxCell id="zPLv-gxZRl9Jhk6KXWEK-58" style="edgeStyle=orthogonalEdgeStyle;rounded=0;orthogonalLoop=1;jettySize=auto;html=1;exitX=1;exitY=0.5;exitDx=0;exitDy=0;entryX=0;entryY=0.5;entryDx=0;entryDy=0;" parent="1" source="zPLv-gxZRl9Jhk6KXWEK-57" target="zPLv-gxZRl9Jhk6KXWEK-55" edge="1">
          <mxGeometry relative="1" as="geometry"/>
        </mxCell>
        <mxCell id="zPLv-gxZRl9Jhk6KXWEK-57" value="TimeIn3" style="rounded=0;whiteSpace=wrap;html=1;fillColor=#d5e8d4;strokeColor=#82b366;" parent="1" vertex="1">
          <mxGeometry x="-850" y="310" width="50" height="40" as="geometry"/>
        </mxCell>
        <mxCell id="zPLv-gxZRl9Jhk6KXWEK-60" style="edgeStyle=orthogonalEdgeStyle;rounded=0;orthogonalLoop=1;jettySize=auto;html=1;exitX=1;exitY=0.5;exitDx=0;exitDy=0;entryX=0;entryY=0.5;entryDx=0;entryDy=0;" parent="1" source="zPLv-gxZRl9Jhk6KXWEK-59" target="zPLv-gxZRl9Jhk6KXWEK-57" edge="1">
          <mxGeometry relative="1" as="geometry"/>
        </mxCell>
        <mxCell id="zPLv-gxZRl9Jhk6KXWEK-59" value="TimeIn2" style="rounded=0;whiteSpace=wrap;html=1;fillColor=#d5e8d4;strokeColor=#82b366;" parent="1" vertex="1">
          <mxGeometry x="-910" y="310" width="50" height="40" as="geometry"/>
        </mxCell>
        <mxCell id="zPLv-gxZRl9Jhk6KXWEK-62" style="edgeStyle=orthogonalEdgeStyle;rounded=0;orthogonalLoop=1;jettySize=auto;html=1;exitX=1;exitY=0.5;exitDx=0;exitDy=0;entryX=0;entryY=0.5;entryDx=0;entryDy=0;" parent="1" source="zPLv-gxZRl9Jhk6KXWEK-61" target="zPLv-gxZRl9Jhk6KXWEK-59" edge="1">
          <mxGeometry relative="1" as="geometry"/>
        </mxCell>
        <mxCell id="zPLv-gxZRl9Jhk6KXWEK-61" value="TimeIn1" style="rounded=0;whiteSpace=wrap;html=1;fillColor=#d5e8d4;strokeColor=#82b366;" parent="1" vertex="1">
          <mxGeometry x="-970" y="310" width="50" height="40" as="geometry"/>
        </mxCell>
        <mxCell id="zPLv-gxZRl9Jhk6KXWEK-72" style="edgeStyle=orthogonalEdgeStyle;rounded=0;orthogonalLoop=1;jettySize=auto;html=1;" parent="1" source="zPLv-gxZRl9Jhk6KXWEK-63" target="zPLv-gxZRl9Jhk6KXWEK-70" edge="1">
          <mxGeometry relative="1" as="geometry"/>
        </mxCell>
        <mxCell id="zPLv-gxZRl9Jhk6KXWEK-63" value="AlmLLo_0114_help7" style="rounded=1;whiteSpace=wrap;html=1;fillColor=#d5e8d4;strokeColor=#82b366;" parent="1" vertex="1">
          <mxGeometry x="-1355" y="170" width="120" height="30" as="geometry"/>
        </mxCell>
        <mxCell id="zPLv-gxZRl9Jhk6KXWEK-66" style="edgeStyle=orthogonalEdgeStyle;rounded=0;orthogonalLoop=1;jettySize=auto;html=1;entryX=0;entryY=0.5;entryDx=0;entryDy=0;" parent="1" source="zPLv-gxZRl9Jhk6KXWEK-64" target="zPLv-gxZRl9Jhk6KXWEK-65" edge="1">
          <mxGeometry relative="1" as="geometry"/>
        </mxCell>
        <mxCell id="zPLv-gxZRl9Jhk6KXWEK-64" value="&lt;div&gt;Timer ON&lt;/div&gt;&lt;div&gt;1sec&lt;br&gt;&lt;/div&gt;" style="rounded=0;whiteSpace=wrap;html=1;fillColor=#dae8fc;strokeColor=#6c8ebf;" parent="1" vertex="1">
          <mxGeometry x="-1155" y="220" width="60" height="60" as="geometry"/>
        </mxCell>
        <mxCell id="zPLv-gxZRl9Jhk6KXWEK-69" style="edgeStyle=orthogonalEdgeStyle;rounded=0;orthogonalLoop=1;jettySize=auto;html=1;entryX=0;entryY=0.5;entryDx=0;entryDy=0;" parent="1" source="zPLv-gxZRl9Jhk6KXWEK-65" target="zPLv-gxZRl9Jhk6KXWEK-68" edge="1">
          <mxGeometry relative="1" as="geometry"/>
        </mxCell>
        <mxCell id="zPLv-gxZRl9Jhk6KXWEK-65" value="&lt;div&gt;Timer OFF&lt;/div&gt;&lt;div&gt;87sec&lt;br&gt;&lt;/div&gt;" style="rounded=0;whiteSpace=wrap;html=1;fillColor=#dae8fc;strokeColor=#6c8ebf;" parent="1" vertex="1">
          <mxGeometry x="-1075" y="220" width="60" height="60" as="geometry"/>
        </mxCell>
        <mxCell id="zPLv-gxZRl9Jhk6KXWEK-73" style="edgeStyle=orthogonalEdgeStyle;rounded=0;orthogonalLoop=1;jettySize=auto;html=1;" parent="1" source="zPLv-gxZRl9Jhk6KXWEK-68" target="zPLv-gxZRl9Jhk6KXWEK-61" edge="1">
          <mxGeometry relative="1" as="geometry"/>
        </mxCell>
        <mxCell id="zPLv-gxZRl9Jhk6KXWEK-68" value="TimeIn1" style="rounded=1;whiteSpace=wrap;html=1;fillColor=#d5e8d4;strokeColor=#82b366;" parent="1" vertex="1">
          <mxGeometry x="-995" y="227.5" width="50" height="45" as="geometry"/>
        </mxCell>
        <mxCell id="zPLv-gxZRl9Jhk6KXWEK-71" style="edgeStyle=orthogonalEdgeStyle;rounded=0;orthogonalLoop=1;jettySize=auto;html=1;" parent="1" source="zPLv-gxZRl9Jhk6KXWEK-70" target="zPLv-gxZRl9Jhk6KXWEK-64" edge="1">
          <mxGeometry relative="1" as="geometry"/>
        </mxCell>
        <mxCell id="zPLv-gxZRl9Jhk6KXWEK-70" value="AlmLLo_0114_help7" style="rounded=0;whiteSpace=wrap;html=1;fillColor=#d5e8d4;strokeColor=#82b366;" parent="1" vertex="1">
          <mxGeometry x="-1305" y="235" width="120" height="30" as="geometry"/>
        </mxCell>
        <mxCell id="zPLv-gxZRl9Jhk6KXWEK-75" style="edgeStyle=orthogonalEdgeStyle;rounded=0;orthogonalLoop=1;jettySize=auto;html=1;entryX=0;entryY=0.5;entryDx=0;entryDy=0;" parent="1" source="zPLv-gxZRl9Jhk6KXWEK-74" target="zPLv-gxZRl9Jhk6KXWEK-63" edge="1">
          <mxGeometry relative="1" as="geometry"/>
        </mxCell>
        <mxCell id="zPLv-gxZRl9Jhk6KXWEK-74" value="AlmLLo_0114_help6" style="rounded=0;whiteSpace=wrap;html=1;fillColor=#f8cecc;strokeColor=#b85450;" parent="1" vertex="1">
          <mxGeometry x="-1500" y="170" width="120" height="30" as="geometry"/>
        </mxCell>
        <mxCell id="zPLv-gxZRl9Jhk6KXWEK-82" style="edgeStyle=orthogonalEdgeStyle;rounded=0;orthogonalLoop=1;jettySize=auto;html=1;" parent="1" source="zPLv-gxZRl9Jhk6KXWEK-76" target="zPLv-gxZRl9Jhk6KXWEK-79" edge="1">
          <mxGeometry relative="1" as="geometry"/>
        </mxCell>
        <mxCell id="zPLv-gxZRl9Jhk6KXWEK-76" value="&lt;div&gt;AlmLLo_0114_help&lt;/div&gt;&lt;div&gt;&lt;br&gt;&lt;/div&gt;" style="rounded=0;whiteSpace=wrap;html=1;fillColor=#d5e8d4;strokeColor=#82b366;" parent="1" vertex="1">
          <mxGeometry x="-1824" y="165" width="120" height="40" as="geometry"/>
        </mxCell>
        <mxCell id="zPLv-gxZRl9Jhk6KXWEK-83" style="edgeStyle=orthogonalEdgeStyle;rounded=0;orthogonalLoop=1;jettySize=auto;html=1;" parent="1" source="zPLv-gxZRl9Jhk6KXWEK-77" target="zPLv-gxZRl9Jhk6KXWEK-78" edge="1">
          <mxGeometry relative="1" as="geometry"/>
        </mxCell>
        <mxCell id="zPLv-gxZRl9Jhk6KXWEK-77" value="&lt;div&gt;AlmLLo_0114n_help&lt;/div&gt;&lt;div&gt;&lt;br&gt;&lt;/div&gt;" style="rounded=0;whiteSpace=wrap;html=1;fillColor=#d5e8d4;strokeColor=#82b366;" parent="1" vertex="1">
          <mxGeometry x="-1824" y="225" width="120" height="40" as="geometry"/>
        </mxCell>
        <mxCell id="zPLv-gxZRl9Jhk6KXWEK-81" style="edgeStyle=orthogonalEdgeStyle;rounded=0;orthogonalLoop=1;jettySize=auto;html=1;entryX=0;entryY=0.75;entryDx=0;entryDy=0;" parent="1" source="zPLv-gxZRl9Jhk6KXWEK-78" target="zPLv-gxZRl9Jhk6KXWEK-74" edge="1">
          <mxGeometry relative="1" as="geometry"/>
        </mxCell>
        <mxCell id="zPLv-gxZRl9Jhk6KXWEK-78" value="&lt;div&gt;AcNw01140000&lt;/div&gt;&lt;div&gt;Active new level sensor&lt;br&gt;&lt;/div&gt;" style="rounded=0;whiteSpace=wrap;html=1;fillColor=#d5e8d4;strokeColor=#82b366;" parent="1" vertex="1">
          <mxGeometry x="-1664" y="225" width="120" height="40" as="geometry"/>
        </mxCell>
        <mxCell id="zPLv-gxZRl9Jhk6KXWEK-80" style="edgeStyle=orthogonalEdgeStyle;rounded=0;orthogonalLoop=1;jettySize=auto;html=1;entryX=0;entryY=0.5;entryDx=0;entryDy=0;" parent="1" source="zPLv-gxZRl9Jhk6KXWEK-79" target="zPLv-gxZRl9Jhk6KXWEK-74" edge="1">
          <mxGeometry relative="1" as="geometry"/>
        </mxCell>
        <mxCell id="zPLv-gxZRl9Jhk6KXWEK-79" value="&lt;div&gt;AcNw01140000&lt;/div&gt;&lt;div&gt;Active new level sensor&lt;br&gt;&lt;/div&gt;" style="rounded=0;whiteSpace=wrap;html=1;fillColor=#f8cecc;strokeColor=#b85450;" parent="1" vertex="1">
          <mxGeometry x="-1664" y="165" width="120" height="40" as="geometry"/>
        </mxCell>
        <mxCell id="zPLv-gxZRl9Jhk6KXWEK-85" style="edgeStyle=orthogonalEdgeStyle;rounded=0;orthogonalLoop=1;jettySize=auto;html=1;entryX=0;entryY=0.5;entryDx=0;entryDy=0;" parent="1" source="zPLv-gxZRl9Jhk6KXWEK-84" target="zPLv-gxZRl9Jhk6KXWEK-76" edge="1">
          <mxGeometry relative="1" as="geometry"/>
        </mxCell>
        <mxCell id="zPLv-gxZRl9Jhk6KXWEK-86" style="edgeStyle=orthogonalEdgeStyle;rounded=0;orthogonalLoop=1;jettySize=auto;html=1;entryX=0;entryY=0.5;entryDx=0;entryDy=0;" parent="1" source="zPLv-gxZRl9Jhk6KXWEK-84" target="zPLv-gxZRl9Jhk6KXWEK-77" edge="1">
          <mxGeometry relative="1" as="geometry"/>
        </mxCell>
        <mxCell id="zPLv-gxZRl9Jhk6KXWEK-84" value="&lt;div&gt;AlmLLo_0114&lt;/div&gt;&lt;div&gt;KKT ALARM, Lo Level&lt;/div&gt;&lt;div&gt;in MM Fryer&lt;br&gt;&lt;/div&gt;" style="rounded=0;whiteSpace=wrap;html=1;fillColor=#f8cecc;strokeColor=#b85450;" parent="1" vertex="1">
          <mxGeometry x="-1990" y="165" width="120" height="40" as="geometry"/>
        </mxCell>
        <mxCell id="zPLv-gxZRl9Jhk6KXWEK-88" style="edgeStyle=orthogonalEdgeStyle;rounded=0;orthogonalLoop=1;jettySize=auto;html=1;" parent="1" source="zPLv-gxZRl9Jhk6KXWEK-87" target="zPLv-gxZRl9Jhk6KXWEK-84" edge="1">
          <mxGeometry relative="1" as="geometry"/>
        </mxCell>
        <mxCell id="zPLv-gxZRl9Jhk6KXWEK-87" value="&lt;div&gt;AlmLLoM_0114&lt;/div&gt;KKT ALARM MANAGER" style="rounded=0;whiteSpace=wrap;html=1;fillColor=#f8cecc;strokeColor=#b85450;" parent="1" vertex="1">
          <mxGeometry x="-2140" y="165" width="120" height="40" as="geometry"/>
        </mxCell>
        <mxCell id="CcSn46xE1Bxuvucd6_CE-1" value="&lt;div&gt;LLLL01140212_ALARM&lt;/div&gt;&lt;div&gt;001436&lt;br&gt;&lt;/div&gt;" style="text;html=1;resizable=0;points=[];autosize=1;align=left;verticalAlign=top;spacingTop=-4;fillColor=#d5e8d4;strokeColor=#82b366;" parent="1" vertex="1">
          <mxGeometry x="720" y="275" width="140" height="30" as="geometry"/>
        </mxCell>
        <mxCell id="CcSn46xE1Bxuvucd6_CE-2" value="&lt;div&gt;TEPm01140308_KKT_ALARM&lt;/div&gt;&lt;div&gt;001437&lt;br&gt;&lt;/div&gt;" style="text;html=1;resizable=0;points=[];autosize=1;align=left;verticalAlign=top;spacingTop=-4;fillColor=#d5e8d4;strokeColor=#82b366;" parent="1" vertex="1">
          <mxGeometry x="690" y="470" width="170" height="30" as="geometry"/>
        </mxCell>
        <mxCell id="E2XO-7Fy04V7G5iEK9wk-1" value="&lt;div&gt;LLLL01140212_Invert &lt;br&gt;&lt;/div&gt;&lt;div&gt;001432&lt;br&gt;&lt;/div&gt;" style="text;html=1;align=center;verticalAlign=middle;resizable=0;points=[];autosize=1;" vertex="1" parent="1">
          <mxGeometry x="-2140" y="338" width="130" height="30" as="geometry"/>
        </mxCell>
        <mxCell id="E2XO-7Fy04V7G5iEK9wk-2" value="BlSn01140205" style="text;html=1;align=center;verticalAlign=middle;resizable=0;points=[];autosize=1;" vertex="1" parent="1">
          <mxGeometry x="-1947" y="339" width="90" height="20" as="geometry"/>
        </mxCell>
      </root>
    </mxGraphModel>
  </diagram>
</mxfile>
